<?xml version="1.0" encoding="UTF-8"?>
<!DOCTYPE svg PUBLIC "-//W3C//DTD SVG 1.1//EN" "http://www.w3.org/Graphics/SVG/1.1/DTD/svg11.dtd">
<svg xmlns="http://www.w3.org/2000/svg" version="1.1" width="229px" height="39px" style="shape-rendering:geometricPrecision; text-rendering:geometricPrecision; image-rendering:optimizeQuality; fill-rule:evenodd; clip-rule:evenodd" xmlns:xlink="http://www.w3.org/1999/xlink">
<g><path style="opacity:0.287" fill="#070500" d="M 94.5,14.5 C 95.926,13.1985 97.2593,11.6985 98.5,10C 104.5,9.33333 110.5,9.33333 116.5,10C 117.252,10.6708 117.586,11.5041 117.5,12.5C 118.908,13.0614 120.408,13.3948 122,13.5C 126.107,12.3222 130.107,11.6555 134,11.5C 134.5,12 135,12.5 135.5,13C 146.828,13.4999 158.162,13.6665 169.5,13.5C 169.33,12.1779 169.663,11.0113 170.5,10C 174.358,9.19007 178.024,9.35673 181.5,10.5C 182.404,11.209 182.737,12.209 182.5,13.5C 189.354,13.176 196.021,13.5093 202.5,14.5C 194.979,14.39 192.979,17.5566 196.5,24C 199.146,24.4974 201.813,24.6641 204.5,24.5C 205.403,28.7572 203.736,31.2572 199.5,32C 192.192,31.9594 184.859,31.7927 177.5,31.5C 167.846,31.6764 158.513,32.6764 149.5,34.5C 149.5,33.5 149.5,32.5 149.5,31.5C 131.563,32.3256 113.563,31.9922 95.5,30.5C 93.2831,31.5723 90.9498,32.2389 88.5,32.5C 84.8333,31.1667 81.1667,31.1667 77.5,32.5C 69.6068,31.9155 61.7734,31.2488 54,30.5C 45.2591,32.4293 36.4257,33.096 27.5,32.5C 24.1506,32.1084 20.8173,31.6084 17.5,31C 16.1057,29.2605 15.4391,27.2605 15.5,25C 16.5394,22.2925 16.5394,19.6259 15.5,17C 15.5427,13.8209 16.876,11.4876 19.5,10C 24.8333,9.33333 30.1667,9.33333 35.5,10C 36.3567,10.6891 37.0233,11.5224 37.5,12.5C 45.8068,13.4979 54.1401,13.8312 62.5,13.5C 62.281,12.325 62.6143,11.325 63.5,10.5C 67.4842,9.23007 71.4842,9.23007 75.5,10.5C 75.8333,11.1667 76.1667,11.8333 76.5,12.5C 82.6535,13.1668 88.6535,13.8334 94.5,14.5 Z"/></g>
<g><path style="opacity:1" fill="#e1be00" d="M 48.5,19.5 C 46.396,19.2011 44.396,19.5344 42.5,20.5C 42.6236,21.1067 42.9569,21.44 43.5,21.5C 44.1667,21.8333 44.8333,22.1667 45.5,22.5C 46.1667,23.1667 46.8333,23.8333 47.5,24.5C 43.713,25.1856 40.5463,24.1856 38,21.5C 37.1667,22.3333 36.3333,23.1667 35.5,24C 31.7887,24.8253 28.122,24.6586 24.5,23.5C 23.0011,22.0962 23.3344,21.4296 25.5,21.5C 27.5,22.1667 29.5,22.8333 31.5,23.5C 33.0004,23.5472 34.0004,22.8805 34.5,21.5C 31.8286,19.5409 28.8286,18.0409 25.5,17C 24.0652,14.7328 24.3985,12.7328 26.5,11C 29.1667,10.3333 31.8333,10.3333 34.5,11C 36.5593,12.1855 36.726,13.3521 35,14.5C 33.0257,12.628 30.8591,12.2947 28.5,13.5C 28.7093,14.086 29.0426,14.586 29.5,15C 31.8782,15.5112 34.2115,16.1779 36.5,17C 37.1258,17.7504 37.6258,18.5838 38,19.5C 39.4831,15.3345 42.3164,13.8345 46.5,15C 48.0368,16.1096 48.7035,17.6096 48.5,19.5 Z"/></g>
<g><path style="opacity:1" fill="#dfbc00" d="M 117.5,12.5 C 117.38,13.5862 116.713,14.2528 115.5,14.5C 113.238,13.5331 110.905,12.8664 108.5,12.5C 108.5,13.8333 108.5,15.1667 108.5,16.5C 110.199,16.3796 111.865,16.0463 113.5,15.5C 115.868,16.2283 116.534,17.5616 115.5,19.5C 113.271,18.4229 110.937,17.7563 108.5,17.5C 108.201,19.604 108.534,21.604 109.5,23.5C 111.432,22.6339 113.432,21.9672 115.5,21.5C 116.932,21.7332 117.432,22.3999 117,23.5C 112.934,24.4637 108.767,24.797 104.5,24.5C 104.5,19.8333 104.5,15.1667 104.5,10.5C 109.14,9.9749 113.473,10.6416 117.5,12.5 Z"/></g>
<g><path style="opacity:1" fill="#695700" d="M 57.5,14.5 C 59.5,14.5 61.5,14.5 63.5,14.5C 63.5,15.5 63.5,16.5 63.5,17.5C 61.6391,16.1581 59.6391,15.1581 57.5,14.5 Z"/></g>
<g><path style="opacity:1" fill="#eac600" d="M 132.5,13.5 C 133.922,13.7496 134.922,14.583 135.5,16C 134.167,18.6667 134.167,21.3333 135.5,24C 133.866,24.4935 132.199,24.6602 130.5,24.5C 130.01,20.5128 130.676,16.8462 132.5,13.5 Z"/></g>
<g><path style="opacity:1" fill="#e8c400" d="M 57.5,14.5 C 59.6391,15.1581 61.6391,16.1581 63.5,17.5C 63.9867,18.4734 64.4867,19.4734 65,20.5C 65.3988,20.2716 65.5654,19.9382 65.5,19.5C 66.4345,18.4324 66.7678,17.099 66.5,15.5C 67.5,15.5 68.5,15.5 69.5,15.5C 67.6469,18.2084 66.6469,21.2084 66.5,24.5C 65.1266,24.6567 63.7932,24.49 62.5,24C 61.2921,21.7497 59.9587,19.583 58.5,17.5C 57.2798,18.7111 56.1131,18.7111 55,17.5C 54.5034,19.8098 54.3367,22.1432 54.5,24.5C 53.1667,24.5 51.8333,24.5 50.5,24.5C 50.8064,21.6146 50.4731,18.9479 49.5,16.5C 51.78,14.7773 54.4467,14.1107 57.5,14.5 Z"/></g>
<g><path style="opacity:1" fill="#e5c200" d="M 71.5,10.5 C 72.5,10.5 73.5,10.5 74.5,10.5C 73.8966,14.9447 74.2299,19.4447 75.5,24C 73.8659,24.4935 72.1992,24.6602 70.5,24.5C 69.9889,20.9703 70.6556,17.8037 72.5,15C 70.4523,13.7741 70.119,12.2741 71.5,10.5 Z"/></g>
<g><path style="opacity:1" fill="#e3bf00" d="M 79.5,14.5 C 81.7224,14.178 83.5557,14.8446 85,16.5C 85.6013,17.9653 85.1013,18.9653 83.5,19.5C 82.0295,18.6195 81.1962,17.2861 81,15.5C 79.161,17.7106 79.3276,19.8773 81.5,22C 86.2685,22.9094 86.4352,23.7427 82,24.5C 76.9097,24.1515 75.2431,21.4848 77,16.5C 77.9947,15.9341 78.828,15.2674 79.5,14.5 Z"/></g>
<g><path style="opacity:1" fill="#e4c100" d="M 120.5,14.5 C 123.119,14.2317 125.619,14.565 128,15.5C 128.218,18.4262 128.718,21.2595 129.5,24C 127.866,24.4935 126.199,24.6602 124.5,24.5C 124.167,13.8333 123.833,13.8333 123.5,24.5C 122.167,24.5 120.833,24.5 119.5,24.5C 119.777,21.5525 119.444,18.7191 118.5,16C 119.416,15.7216 120.082,15.2216 120.5,14.5 Z"/></g>
<g><path style="opacity:1" fill="#d8b704" d="M 149.5,14.5 C 153.57,14.7691 157.737,14.7691 162,14.5C 166.256,14.4186 167.923,16.4186 167,20.5C 164.497,22.4801 162.664,24.8135 161.5,27.5C 159.801,27.6602 158.134,27.4935 156.5,27C 157.622,23.5915 157.789,20.0915 157,16.5C 156.047,18.5922 154.714,18.9255 153,17.5C 152.503,19.8098 152.337,22.1432 152.5,24.5C 151.167,24.5 149.833,24.5 148.5,24.5C 148.777,21.5525 148.444,18.7191 147.5,16C 148.416,15.7216 149.082,15.2216 149.5,14.5 Z"/></g>
<g><path style="opacity:1" fill="#e7c400" d="M 181.5,10.5 C 181.2,15.0005 181.2,19.6672 181.5,24.5C 180.167,24.5 178.833,24.5 177.5,24.5C 177.663,22.1432 177.497,19.8098 177,17.5C 175.887,18.7111 174.72,18.7111 173.5,17.5C 172.526,19.7427 172.192,22.076 172.5,24.5C 171.167,24.5 169.833,24.5 168.5,24.5C 168.335,21.4816 168.502,18.4816 169,15.5C 172.315,14.7728 175.815,14.6062 179.5,15C 177.963,13.8904 177.297,12.3904 177.5,10.5C 178.833,10.5 180.167,10.5 181.5,10.5 Z"/></g>
<g><path style="opacity:1" fill="#d6b401" d="M 184.5,14.5 C 187.119,14.2317 189.619,14.565 192,15.5C 192.167,15.8333 192.333,16.1667 192.5,16.5C 191.624,17.2508 190.624,17.7508 189.5,18C 193.241,18.4028 194.241,20.2362 192.5,23.5C 189.628,24.7825 186.795,24.7825 184,23.5C 183.312,22.6683 183.479,22.0016 184.5,21.5C 186.412,23.1561 188.412,23.4895 190.5,22.5C 188.219,21.7234 186.052,20.7234 184,19.5C 183.36,17.735 183.527,16.0683 184.5,14.5 Z"/></g>
<g><path style="opacity:0.732" fill="#0b0700" d="M 42.5,16.5 C 44.337,16.6395 44.6704,17.3061 43.5,18.5C 42.7025,18.0431 42.3691,17.3764 42.5,16.5 Z"/></g>
<g><path style="opacity:1" fill="#766300" d="M 49.5,16.5 C 50.4731,18.9479 50.8064,21.6146 50.5,24.5C 49.5,23.1667 48.5,23.1667 47.5,24.5C 46.8333,23.8333 46.1667,23.1667 45.5,22.5C 46.8333,22.5 48.1667,22.5 49.5,22.5C 49.5,20.5 49.5,18.5 49.5,16.5 Z"/></g>
<g><path style="opacity:1" fill="#796500" d="M 69.5,15.5 C 68.5,15.5 67.5,15.5 66.5,15.5C 66.7678,17.099 66.4345,18.4324 65.5,19.5C 65.5,17.8333 65.5,16.1667 65.5,14.5C 67.099,14.2322 68.4324,14.5655 69.5,15.5 Z"/></g>
<g><path style="opacity:1" fill="#e1be00" d="M 94.5,14.5 C 95.9418,15.8195 96.6085,17.4862 96.5,19.5C 94.396,19.2011 92.396,19.5344 90.5,20.5C 90.6236,21.1067 90.9569,21.44 91.5,21.5C 93.1947,22.0114 94.8614,22.6781 96.5,23.5C 93.059,25.0063 89.8924,24.6729 87,22.5C 85.8354,16.496 88.3354,13.8293 94.5,14.5 Z"/></g>
<g><path style="opacity:0.852" fill="#110c00" d="M 89.5,16.5 C 91.9828,16.73 92.4828,17.3966 91,18.5C 89.9701,18.1639 89.4701,17.4972 89.5,16.5 Z"/></g>
<g><path style="opacity:1" fill="#debb00" d="M 139.5,14.5 C 143.851,13.533 146.185,15.1996 146.5,19.5C 144.712,19.2148 143.045,19.5481 141.5,20.5C 143.059,22.1307 145.059,22.964 147.5,23C 145.045,24.5403 142.379,24.8736 139.5,24C 135.581,20.8397 135.581,17.673 139.5,14.5 Z"/></g>
<g><path style="opacity:0.78" fill="#000000" d="M 140.5,16.5 C 142.337,16.6395 142.67,17.3061 141.5,18.5C 140.702,18.0431 140.369,17.3764 140.5,16.5 Z"/></g>
<g><path style="opacity:1" fill="#e2bf00" d="M 202.5,14.5 C 203.067,16.0295 203.733,17.5295 204.5,19C 202.423,19.1922 200.423,19.6922 198.5,20.5C 198.624,21.1067 198.957,21.44 199.5,21.5C 201.728,21.7769 203.395,22.7769 204.5,24.5C 201.813,24.6641 199.146,24.4974 196.5,24C 192.979,17.5566 194.979,14.39 202.5,14.5 Z"/></g>
<g><path style="opacity:0.852" fill="#110c00" d="M 197.5,16.5 C 199.983,16.73 200.483,17.3966 199,18.5C 197.97,18.1639 197.47,17.4972 197.5,16.5 Z"/></g>
<g><path style="opacity:1" fill="#736000" d="M 48.5,19.5 C 46.8333,20.1667 45.1667,20.8333 43.5,21.5C 42.9569,21.44 42.6236,21.1067 42.5,20.5C 44.396,19.5344 46.396,19.2011 48.5,19.5 Z"/></g>
<g><path style="opacity:1" fill="#665500" d="M 96.5,19.5 C 94.8333,20.1667 93.1667,20.8333 91.5,21.5C 90.9569,21.44 90.6236,21.1067 90.5,20.5C 92.396,19.5344 94.396,19.2011 96.5,19.5 Z"/></g>
<g><path style="opacity:1" fill="#5a4b07" d="M 202.5,14.5 C 203.75,14.5774 204.583,15.244 205,16.5C 205.765,18.0657 205.598,19.3991 204.5,20.5C 202.585,20.2155 200.919,20.5489 199.5,21.5C 198.957,21.44 198.624,21.1067 198.5,20.5C 200.423,19.6922 202.423,19.1922 204.5,19C 203.733,17.5295 203.067,16.0295 202.5,14.5 Z"/></g>
<g><path style="opacity:0.433" fill="#040200" d="M 199.5,21.5 C 200.919,20.5489 202.585,20.2155 204.5,20.5C 206.836,22.0728 206.836,23.4061 204.5,24.5C 203.395,22.7769 201.728,21.7769 199.5,21.5 Z"/></g>
</svg>
